<?xml version="1.0" standalone="no"?>
<!DOCTYPE svg PUBLIC "-//W3C//DTD SVG 20010904//EN"
 "http://www.w3.org/TR/2001/REC-SVG-20010904/DTD/svg10.dtd">
<svg version="1.0" xmlns="http://www.w3.org/2000/svg"
 width="3333.000000pt" height="3333.000000pt" viewBox="0 0 3333.000000 3333.000000"
 preserveAspectRatio="xMidYMid meet">
<metadata>
Created by potrace 1.11, written by Peter Selinger 2001-2013
</metadata>
<g transform="translate(0.000000,3333.000000) scale(0.100000,-0.100000)"
fill="#000000" stroke="none">
<path d="M13409 29496 c-2 -2 -42 -7 -89 -11 -89 -6 -131 -11 -190 -19 -19 -3
-55 -8 -80 -11 -25 -3 -57 -7 -73 -10 -15 -3 -55 -10 -90 -16 -468 -82 -982
-272 -1396 -516 -179 -105 -183 -108 -297 -187 -315 -221 -584 -466 -833 -761
-121 -142 -109 -127 -171 -212 -27 -37 -54 -73 -59 -80 -20 -23 -166 -251
-214 -333 -126 -214 -281 -555 -355 -780 -62 -189 -134 -459 -147 -555 -3 -16
-7 -41 -10 -55 -9 -43 -24 -133 -30 -175 -19 -146 -20 -151 -30 -305 -4 -58
-9 -147 -10 -197 -1 -51 -5 -96 -8 -99 -4 -4 -1191 -8 -2639 -9 -1448 -2
-2649 -5 -2668 -8 -19 -3 -73 -8 -120 -12 -46 -3 -87 -8 -90 -10 -3 -2 -35 -6
-72 -9 -37 -4 -77 -9 -90 -12 -29 -6 -113 -22 -153 -28 -177 -30 -591 -150
-730 -211 -16 -8 -70 -30 -119 -50 -532 -217 -1082 -603 -1495 -1051 -97 -105
-111 -121 -200 -232 -362 -450 -630 -973 -790 -1540 -22 -76 -42 -155 -45
-176 -4 -21 -8 -42 -11 -46 -4 -6 -6 -18 -20 -95 -42 -229 -56 -328 -73 -525
-10 -115 -9 -13235 1 -13330 17 -166 19 -186 22 -201 2 -9 6 -40 10 -70 3 -30
10 -76 15 -104 5 -27 12 -65 15 -83 67 -408 266 -949 495 -1347 54 -95 239
-381 270 -418 5 -6 42 -52 81 -102 274 -349 539 -599 959 -905 154 -111 475
-290 715 -397 178 -79 494 -188 663 -228 9 -3 35 -9 57 -14 22 -6 55 -13 74
-16 19 -3 37 -8 41 -10 4 -2 20 -6 36 -9 16 -3 70 -12 119 -20 152 -26 282
-43 415 -53 127 -11 25197 -10 25327 0 55 4 112 10 125 12 12 2 50 6 83 10 92
10 124 15 205 30 41 8 89 17 105 20 67 11 226 49 325 77 894 255 1654 764
2241 1503 369 464 676 1103 804 1675 20 89 18 78 43 215 20 103 26 143 38 240
2 22 6 56 9 75 2 19 8 78 12 130 11 125 10 13207 0 13330 -13 153 -29 276 -53
415 -9 50 -18 99 -19 110 -2 11 -11 52 -20 90 -17 69 -21 87 -29 123 -32 138
-129 428 -199 592 -6 14 -11 27 -12 30 -17 51 -168 355 -225 455 -28 50 -99
161 -156 247 -183 275 -341 465 -579 698 -231 226 -497 437 -735 582 -36 21
-72 43 -80 49 -128 81 -471 248 -635 309 -11 4 -33 13 -50 20 -100 41 -404
134 -540 164 -161 35 -324 65 -390 72 -22 2 -50 6 -63 9 -13 2 -60 7 -105 10
-45 4 -95 9 -112 12 -16 3 -1217 6 -2668 8 -1451 1 -2641 5 -2644 9 -4 4 -8
53 -9 109 -3 135 -17 339 -29 417 -2 14 -7 48 -10 75 -24 183 -99 514 -165
720 -248 775 -747 1509 -1370 2014 -63 51 -124 100 -135 109 -88 73 -362 251
-530 344 -122 68 -374 189 -461 222 -226 84 -533 182 -629 200 -16 3 -48 10
-70 15 -50 12 -96 21 -240 45 -49 8 -135 20 -190 25 -55 6 -122 14 -150 18
-51 7 -6599 16 -6606 9z m3686 -7340 c28 -3 93 -8 145 -11 103 -7 168 -12 245
-21 28 -3 64 -7 80 -9 17 -2 44 -6 60 -9 17 -2 57 -8 90 -11 33 -3 69 -8 80
-11 11 -3 36 -7 55 -9 19 -2 44 -6 55 -8 11 -3 40 -8 65 -12 25 -4 54 -9 65
-11 11 -2 56 -11 100 -19 44 -8 89 -16 100 -19 11 -2 52 -11 90 -20 39 -8 85
-20 103 -25 18 -5 36 -10 40 -10 23 -1 111 -24 402 -107 116 -33 504 -167 575
-199 17 -7 75 -31 130 -53 361 -143 862 -404 1208 -629 70 -45 130 -83 133
-83 3 0 10 -5 17 -10 7 -6 87 -64 179 -130 149 -105 458 -346 529 -411 14 -13
54 -49 90 -79 178 -153 534 -509 684 -685 33 -38 62 -72 65 -75 41 -40 252
-305 368 -463 118 -159 382 -557 382 -574 0 -4 6 -14 14 -22 7 -9 31 -47 52
-86 20 -38 56 -101 79 -140 115 -196 295 -578 417 -885 63 -158 202 -555 212
-605 3 -11 20 -74 39 -140 35 -119 72 -257 81 -305 2 -14 14 -64 25 -112 11
-47 23 -99 26 -115 2 -15 7 -39 10 -53 6 -29 41 -228 50 -280 3 -19 8 -42 10
-50 2 -8 7 -46 10 -85 4 -38 8 -72 10 -75 1 -3 6 -37 9 -75 4 -39 8 -81 11
-94 2 -13 7 -58 10 -100 3 -42 7 -94 10 -116 20 -185 28 -852 12 -1065 -14
-191 -17 -224 -23 -285 -8 -89 -13 -135 -20 -180 -4 -22 -8 -51 -9 -65 -8 -84
-25 -196 -50 -335 -3 -16 -15 -80 -26 -141 -10 -61 -26 -136 -34 -167 -8 -30
-16 -67 -19 -81 -3 -14 -7 -34 -10 -44 -3 -9 -7 -28 -10 -42 -26 -132 -108
-417 -195 -671 -142 -419 -388 -974 -559 -1259 -12 -19 -31 -53 -43 -75 -130
-240 -448 -711 -632 -935 -6 -8 -37 -47 -67 -85 -30 -39 -57 -72 -60 -75 -3
-3 -48 -54 -99 -115 -202 -234 -545 -579 -766 -769 -44 -37 -93 -80 -110 -95
-162 -141 -542 -420 -795 -582 -171 -110 -424 -259 -440 -259 -4 0 -10 -4 -12
-8 -1 -5 -73 -44 -158 -87 -218 -110 -186 -95 -485 -230 -117 -53 -488 -196
-545 -210 -8 -2 -55 -18 -105 -35 -117 -41 -464 -141 -538 -156 -10 -2 -26 -5
-35 -8 -9 -3 -28 -7 -42 -10 -14 -2 -43 -9 -65 -14 -22 -6 -51 -13 -65 -15
-14 -3 -43 -10 -65 -15 -22 -6 -53 -13 -70 -15 -16 -3 -97 -17 -180 -32 -82
-15 -163 -28 -180 -31 -16 -2 -52 -6 -80 -9 -27 -4 -61 -8 -75 -10 -54 -7
-136 -18 -150 -20 -13 -2 -125 -12 -235 -20 -22 -2 -80 -7 -130 -11 -190 -17
-881 -10 -1075 11 -19 2 -80 7 -135 11 -55 3 -103 8 -106 10 -3 2 -33 6 -65 9
-32 3 -68 7 -79 10 -11 2 -46 7 -78 10 -32 4 -68 8 -80 11 -12 2 -35 6 -52 9
-199 33 -340 60 -435 81 -144 33 -417 101 -450 113 -14 5 -52 16 -85 26 -223
61 -630 210 -900 328 -138 60 -548 262 -635 313 -25 15 -92 54 -150 87 -58 33
-124 73 -147 89 -23 15 -44 28 -46 28 -20 0 -461 306 -616 428 -168 131 -226
176 -231 182 -3 3 -70 62 -150 130 -290 249 -776 761 -964 1015 -17 22 -32 42
-35 45 -30 26 -228 300 -338 465 -202 304 -313 499 -504 877 -38 75 -69 139
-69 141 0 3 -18 45 -41 94 -59 129 -62 135 -124 293 -31 80 -61 154 -66 165
-12 27 -133 387 -153 455 -59 204 -108 392 -131 499 -2 9 -11 48 -20 86 -16
65 -29 134 -70 370 -22 123 -23 128 -35 227 -19 161 -21 173 -26 203 -2 17 -7
64 -10 105 -3 41 -7 93 -9 115 -27 273 -27 971 0 1215 2 19 6 71 9 115 4 44 8
89 10 100 2 11 7 49 10 85 4 36 11 90 16 120 5 30 12 84 15 120 4 36 8 67 10
70 2 3 15 71 29 150 36 202 34 194 62 310 13 58 26 114 29 125 83 377 280 946
473 1370 104 228 381 747 463 865 9 14 69 104 132 200 146 219 378 533 502
675 14 17 37 44 51 60 222 259 548 591 763 775 35 30 69 60 75 65 6 6 54 46
106 89 52 42 104 85 115 95 11 9 38 30 60 47 38 28 54 41 95 74 10 8 44 33 75
55 31 22 78 56 105 75 176 127 396 268 612 393 157 91 511 275 628 326 30 13
89 40 130 59 188 86 641 252 890 326 210 61 554 145 730 176 294 52 301 54
435 70 50 6 105 13 123 16 17 2 47 6 65 8 17 3 76 8 131 11 54 4 107 8 117 10
10 2 81 7 156 10 76 4 139 8 141 10 5 5 658 -3 707 -9z"/>
<path d="M16527 18834 c-1 -1 -58 -5 -127 -8 -69 -4 -138 -9 -155 -10 -16 -2
-57 -7 -90 -10 -114 -13 -357 -57 -483 -87 -70 -17 -131 -32 -137 -33 -5 -1
-37 -10 -70 -20 -432 -130 -792 -295 -1160 -531 -113 -73 -371 -265 -441 -330
-6 -5 -40 -35 -75 -65 -126 -110 -325 -315 -469 -486 -174 -206 -388 -535
-527 -809 -142 -280 -300 -718 -357 -995 -21 -100 -55 -295 -61 -340 -10 -93
-15 -134 -20 -160 -24 -142 -24 -728 0 -900 2 -14 11 -78 19 -142 42 -312 136
-674 251 -968 86 -220 205 -460 340 -688 45 -76 213 -322 262 -382 168 -210
213 -260 383 -430 125 -125 209 -202 295 -273 119 -98 327 -250 412 -302 296
-182 513 -292 771 -393 225 -88 467 -164 597 -186 11 -2 38 -9 60 -14 22 -6
54 -14 70 -17 78 -14 94 -16 145 -25 67 -11 109 -17 175 -25 28 -3 64 -8 80
-10 202 -25 678 -25 895 0 19 3 58 7 85 10 28 3 61 7 75 10 14 2 84 13 155 25
72 12 133 24 136 25 3 2 17 6 32 9 51 9 202 48 287 73 46 14 91 27 100 28 33
8 291 105 394 150 99 42 338 160 411 203 17 9 53 30 80 46 106 62 403 261 425
286 3 3 48 39 100 81 144 116 173 142 335 304 203 203 327 349 486 575 141
199 222 337 348 595 113 230 214 488 266 680 9 33 25 92 36 130 10 39 21 84
24 100 3 17 12 57 20 90 7 33 16 80 20 105 3 25 10 63 15 85 5 22 11 63 14 90
4 28 9 66 11 85 35 267 39 719 10 970 -14 116 -31 239 -39 276 -2 12 -7 39
-10 60 -6 36 -38 187 -56 264 -5 19 -20 76 -34 125 -15 50 -28 97 -30 105 -12
44 -87 255 -115 320 -17 41 -31 78 -31 83 0 17 -176 368 -241 480 -61 104
-214 343 -229 357 -3 3 -32 41 -64 85 -54 71 -135 174 -172 215 -7 8 -39 44
-71 80 -133 148 -336 342 -478 455 -27 22 -52 42 -55 45 -46 46 -303 224 -454
315 -394 236 -795 399 -1246 506 -69 16 -140 32 -159 35 -18 3 -43 8 -55 10
-90 17 -176 30 -261 39 -33 3 -73 8 -90 10 -94 12 -547 28 -558 19z"/>
</g>
</svg>
